<svg xmlns="http://www.w3.org/2000/svg" xml:space="preserve" width="1500" height="349" data-id="lg_qyrRCDQNbDpjWI9gVb" data-version="1" viewBox="0 0 1500 349"><g data-padding="20"><g transform="translate(10 6.232)scale(.96429)"><rect width="375.012" height="101.7" x="179.401" y="-276.176" fill="none" rx="0" ry="0" transform="translate(400.5 486.74)"/><path fill="#fff" d="M582.967 226.685h35.82v7.29h-13.86v55.71h-7.92v-55.71h-14.04Zm46.72 63h-8.1v-1.62l15.3-61.38 17.82.09 15.21 61.29v1.62h-8.1l-4.86-20.25h-22.41Zm12.96-55.62-6.66 28.35h19.62l-6.75-28.35Zm34.19-7.38v63h24.75q5.13 0 9.05-1.89 3.91-1.89 6.21-5.76 2.29-3.87 2.29-9.99 0-4.95-1.66-8.14-1.67-3.2-4.1-5t-4.95-2.43v-.45q1.89-.63 3.92-2.16 2.02-1.53 3.46-4.5t1.44-7.47q0-7.2-4.14-11.2-4.14-4.01-10.8-4.01Zm23.4 55.8h-15.48v-21.78h15.3q4.5 0 7.65 2.79t3.15 7.92q0 5.49-2.74 8.28-2.75 2.79-7.88 2.79m0-28.26h-15.48v-20.61h15.48q4.23 0 6.66 2.7t2.43 7.74q0 4.86-2.43 7.52-2.43 2.65-6.66 2.65m61.48 20.51q0 4.95-2.29 8.55-2.3 3.6-6.35 5.54-4.05 1.93-9.54 1.93-4.32 0-7.96-1.03-3.65-1.04-6.21-2.48-2.57-1.44-3.83-2.43v-7.74h1.17q2.79 2.43 7.25 4.41 4.45 1.98 8.95 1.98 2.88 0 5.36-.85 2.47-.86 3.96-2.75 1.48-1.89 1.48-4.68 0-3.51-1.8-5.8-1.8-2.3-5.49-4.55l-10.89-6.84q-2.52-1.62-5.17-3.73-2.66-2.12-4.41-5.22-1.76-3.11-1.76-7.61 0-5.13 2.34-8.64t6.3-5.31 8.91-1.8q4.41 0 7.74.9t5.67 2.25 3.69 2.7v7.74h-1.26q-2.25-2.61-6.39-4.45-4.14-1.85-9.27-1.85-4.23 0-6.97 2.03-2.75 2.02-2.75 5.8 0 3.51 2.43 6.03t5.85 4.68l10.08 6.3q3.06 1.89 5.58 4.23t4.05 5.4 1.53 7.29m8.27-48.05h31.14v7.2h-23.22v23.94q2.97-1.26 6.71-1.98 3.73-.72 7.6-.85 3.87-.14 7.02.4v6.75l-.72.54q-2.43-.63-6.07-.63-3.65 0-7.52.63t-7.02 1.98v25.02h-7.92Zm38.89 63v-63h7.92v55.8h21.33v7.2Zm34.19-31.5q0-11.52 3.69-18.67 3.69-7.16 9.68-10.53 5.98-3.38 13-3.38t13.01 3.38q5.98 3.37 9.67 10.53 3.69 7.15 3.69 18.67 0 11.43-3.69 18.63t-9.67 10.58q-5.99 3.37-13.01 3.37t-13-3.37q-5.99-3.38-9.68-10.58t-3.69-18.63m8.19 0q0 8.37 2.39 13.95 2.38 5.58 6.52 8.33 4.14 2.74 9.27 2.74 5.04 0 9.18-2.74 4.14-2.75 6.62-8.33 2.47-5.58 2.47-13.95 0-8.46-2.52-13.99-2.52-5.54-6.66-8.28-4.14-2.75-9.09-2.75-5.13 0-9.27 2.79t-6.52 8.33q-2.39 5.53-2.39 13.9m49.23-29.88v-1.62h7.92l8.28 53.55h1.53l7.83-53.55h10.71l7.92 53.55h1.53l8.19-53.55h7.92v1.62l-9.99 61.38h-13.05l-7.2-51.12h-1.26l-7.29 51.12h-12.96Z"/><rect width="560" height="28.25" x="86.907" y="-239.451" fill="none" rx="0" ry="0" transform="translate(400.5 560)"/><path fill="#fff" d="M495.687 342.515v-17.05h10.45v1.92h-8.35v5.45h7.75v1.88h-7.75v7.8Zm27.4-2.93v-2.85q-.5.03-.95.05-.45.03-.89.07-.44.03-.79.08-1.8.23-2.55.79t-.75 1.61q0 .88.54 1.32.54.43 1.41.43 1.2 0 2.14-.41t1.84-1.09m.22 3.13-.25-1.38q-1.17.68-2.19 1.09-1.01.41-2.18.41-1.68 0-2.67-.81-.98-.81-.98-2.69 0-.97.5-1.7.5-.72 1.31-1.21t1.84-.76q1.02-.28 2.1-.35.45-.05 1.17-.09.73-.04 1.13-.06 0-.88-.05-1.56-.05-.69-.3-1.18t-.74-.74-1.39-.25q-.72 0-1.4.09-.67.09-1.2.19-.62.12-1.15.27l-.4-1.72q.63-.15 1.35-.28.63-.12 1.45-.21.83-.09 1.78-.09 1.27 0 2.06.38.79.37 1.22 1.01.44.64.6 1.45.17.81.17 1.71v6q0 .35.01.74t.05.76q.04.38.09.78Zm21.9-12.63-.4 1.68q-.42-.1-1.17-.21-.75-.12-1.53-.12-1.12 0-1.84.45-.71.45-1.11 1.17-.4.71-.55 1.57t-.15 1.69q0 1.27.33 2.19.32.91.86 1.48.54.58 1.24.84t1.47.26q.53 0 1.01-.06.49-.06.9-.15.42-.09.79-.21l.4 1.67q-.52.15-.97.25t-1.07.18q-.61.07-1.31.07-1.37 0-2.45-.35-1.07-.35-1.81-1.12-.74-.78-1.13-2.03-.38-1.25-.38-3.05 0-1.75.48-3.01.49-1.26 1.29-2.05t1.84-1.16q1.04-.38 2.16-.38.6 0 1.16.07.57.06.99.13.5.1.95.2m11.13 12.44v-12.6l2-.23v12.83Zm-.33-16.18q0-.57.39-.96t.96-.39q.6 0 1.01.39.42.39.42.96 0 .58-.42.97-.41.38-1.01.38-.57 0-.96-.38-.39-.39-.39-.97m14.33 16.17v-18.73l2-.22v18.95Zm14 .01v-12.6l2-.23v12.83Zm-.33-16.18q0-.57.39-.96t.96-.39q.6 0 1.01.39.42.39.42.96 0 .58-.42.97-.41.38-1.01.38-.57 0-.96-.38-.39-.39-.39-.97m15.24.09 2-.25v3.75h3.63v1.63h-3.63v6.67q0 .83.04 1.38t.16.87q.13.33.35.47.23.13.58.13.95-.02 2.2-.7l.6 1.53q-.83.55-1.54.74-.71.18-1.41.18-1.65 0-2.32-.93-.66-.94-.66-3.12v-7.22h-2.3v-1.63h2.3Zm23.59 13.15v-2.85q-.5.03-.95.05-.45.03-.89.07-.44.03-.79.08-1.8.23-2.55.79t-.75 1.61q0 .88.54 1.32.54.43 1.41.43 1.2 0 2.14-.41t1.84-1.09m.22 3.13-.25-1.38q-1.17.68-2.19 1.09-1.01.41-2.18.41-1.68 0-2.67-.81-.98-.81-.98-2.69 0-.97.5-1.7.5-.72 1.31-1.21t1.84-.76q1.02-.28 2.1-.35.45-.05 1.17-.09.73-.04 1.13-.06 0-.88-.05-1.56-.05-.69-.3-1.18t-.74-.74-1.39-.25q-.72 0-1.4.09-.67.09-1.2.19-.62.12-1.15.27l-.4-1.72q.63-.15 1.35-.28.63-.12 1.45-.21.83-.09 1.78-.09 1.27 0 2.06.38.79.37 1.22 1.01.44.64.6 1.45.17.81.17 1.71v6q0 .35.01.74t.05.76q.04.38.09.78Zm14.63-16.28 2-.25v3.75h3.62v1.63h-3.62v6.67q0 .83.03 1.38.04.55.17.87.12.33.35.47.22.13.57.13.95-.02 2.2-.7l.6 1.53q-.82.55-1.54.74-.71.18-1.41.18-1.65 0-2.31-.93-.66-.94-.66-3.12v-7.22h-2.3v-1.63h2.3Zm25.39 14.1.37 1.68q-.57.17-1.19.3-.61.12-1.35.22-.73.1-1.53.1-1.25 0-2.33-.35-1.07-.35-1.87-1.12-.8-.78-1.27-2.01-.46-1.24-.46-3.04 0-1.63.45-2.86.45-1.24 1.24-2.08t1.85-1.26q1.06-.43 2.31-.43 1.23 0 2.13.48.9.47 1.48 1.29.59.81.88 1.9.29 1.08.29 2.28l-.38 1.1h-8.07q0 .78.2 1.55.2.78.68 1.4.49.63 1.28 1.02.79.38 1.96.38.75 0 1.38-.08.62-.09 1.08-.2.47-.12.87-.27m-7.38-5.4h6.3q0-.17-.07-.77-.08-.6-.35-1.25-.28-.65-.85-1.16-.58-.52-1.53-.52-1.05 0-1.72.44-.68.44-1.08 1.04t-.55 1.22q-.15.63-.15 1m37.59 7.38v-6.2l-5.45-10.85h2.32l4.18 8.27 4.2-8.27h2.32l-5.45 10.85v6.2Zm18.17-6.23q0 2.43 1.09 3.62 1.09 1.18 2.94 1.18 1.82 0 2.85-1.17 1.02-1.18 1.02-3.53 0-2.5-1.09-3.72-1.08-1.23-2.96-1.23-1.87 0-2.86 1.22-.99 1.21-.99 3.63m-2.12-.02q0-1.9.6-3.16.6-1.27 1.52-2.03.93-.76 1.99-1.07 1.06-.32 2.01-.32.9 0 1.96.29 1.07.29 1.97 1.03.9.73 1.5 1.97t.6 3.14q0 1.97-.62 3.27-.61 1.3-1.53 2.07-.93.76-2 1.07-1.08.31-2 .31-.95 0-2-.3t-1.94-1.03q-.89-.74-1.48-2.02-.58-1.27-.58-3.22m31.12 6.46-.15-1.58h-.05q-.22.18-.65.47-.42.28-.97.56-.55.27-1.22.47-.66.2-1.33.2-.93 0-1.58-.23-.65-.24-1.05-.79t-.57-1.45q-.18-.9-.18-2.25v-8.18h2v7.88q0 .75.03 1.35.02.6.17 1.02.15.43.49.67.34.23.96.23.65 0 1.35-.27.7-.28 1.28-.63.67-.4 1.32-.9v-9.35h2v10.95q.03.9.13 1.63Zm13.9-.2v-10.55q0-.58-.12-1.8l1.85-.25.2 1.82h.02q.45-.57.88-1 .42-.42.88-.73.47-.32.89-.32.58-.02 1.6.13l-.45 1.92q-.82-.15-1.15-.12-.42 0-.9.4-.47.4-.82.85-.45.55-.88 1.25v8.4Zm44.65-16.58-.35 1.93q-1.1-.23-2.34-.43-1.23-.2-2.86-.25-1.65.03-2.85.5-1.2.48-1.96 1.37-.76.88-1.14 2.11-.37 1.22-.37 2.7 0 1.9.48 3.25.49 1.35 1.35 2.21.87.86 2.02 1.26t2.47.4q.85 0 1.54-.1t1.2-.23q.51-.14.94-.32v-4.57h-3.13v-1.88h5.25v7.48q-.87.57-2.41 1.04-1.54.46-3.39.43-1.7 0-3.26-.4t-2.78-1.41q-1.21-1.01-1.93-2.76-.73-1.75-.73-4.43 0-2.17.68-3.78.67-1.62 1.83-2.68 1.17-1.06 2.7-1.6 1.54-.54 3.27-.54 1.12 0 2.17.12 1.05.11 1.93.25.87.13 1.67.33m19.64 16.78-.15-1.58h-.05q-.22.18-.65.47-.42.28-.97.56-.55.27-1.22.47-.66.2-1.33.2-.93 0-1.58-.23-.65-.24-1.05-.79t-.57-1.45q-.18-.9-.18-2.25v-8.18h2v7.88q0 .75.03 1.35.02.6.17 1.02.15.43.49.67.34.23.96.23.65 0 1.35-.27.7-.28 1.28-.63.67-.4 1.32-.9v-9.35h2v10.95q.03.9.13 1.63Zm13.89-.2v-12.6l2-.23v12.83Zm-.33-16.18q0-.57.39-.96t.96-.39q.6 0 1.01.39.42.39.42.96 0 .58-.42.97-.41.38-1.01.38-.57 0-.96-.38-.39-.39-.39-.97m15.24.09 2-.25v3.75h3.63v1.63h-3.63v6.67q0 .83.04 1.38t.16.87q.13.33.35.47.23.13.58.13.95-.02 2.2-.7l.6 1.53q-.83.55-1.54.74-.71.18-1.41.18-1.65 0-2.32-.93-.66-.94-.66-3.12v-7.22h-2.3v-1.63h2.3Zm23.59 13.15v-2.85q-.5.03-.95.05-.45.03-.89.07-.44.03-.79.08-1.8.23-2.55.79t-.75 1.61q0 .88.54 1.32.54.43 1.41.43 1.2 0 2.14-.41t1.84-1.09m.22 3.13-.25-1.38q-1.17.68-2.19 1.09-1.01.41-2.18.41-1.68 0-2.67-.81-.98-.81-.98-2.69 0-.97.5-1.7.5-.72 1.31-1.21t1.84-.76q1.02-.28 2.1-.35.45-.05 1.17-.09.73-.04 1.13-.06 0-.88-.05-1.56-.05-.69-.3-1.18t-.74-.74-1.39-.25q-.72 0-1.4.09-.67.09-1.2.19-.62.12-1.15.27l-.4-1.72q.63-.15 1.35-.28.63-.12 1.45-.21.83-.09 1.78-.09 1.27 0 2.06.38.79.37 1.22 1.01.44.64.6 1.45.17.81.17 1.71v6q0 .35.01.74t.05.76q.04.38.09.78Zm13.73-.19v-10.55q0-.58-.13-1.8l1.85-.25.2 1.82h.02q.46-.57.88-1 .43-.42.89-.73.46-.32.88-.32.58-.02 1.6.13l-.44 1.92q-.83-.15-1.16-.12-.42 0-.9.4-.47.4-.82.85-.45.55-.87 1.25v8.4Zm31.32-.01v-17.05h3.92q3.25 0 4.82 1.15 1.56 1.15 1.56 3.87 0 1.5-.58 2.5-.57 1-1.43 1.62-.87.61-1.87.87t-1.85.26h-2.47v6.78Zm2.1-15.18v6.53h2.3q.85 0 1.54-.16.68-.17 1.18-.55.5-.39.78-1.05.27-.67.27-1.67t-.28-1.61q-.29-.61-.85-.94-.57-.32-1.42-.43-.85-.12-1.97-.12Zm19.4 15.18v-18.73l2-.22v18.95Zm21-2.93v-2.85q-.5.03-.95.05-.45.03-.89.07-.44.03-.79.08-1.8.23-2.55.79t-.75 1.61q0 .88.54 1.32.54.43 1.41.43 1.2 0 2.14-.41t1.84-1.09m.22 3.13-.25-1.38q-1.17.68-2.18 1.09-1.02.41-2.19.41-1.68 0-2.66-.81-.99-.81-.99-2.69 0-.97.5-1.7.5-.72 1.31-1.21t1.84-.76q1.02-.28 2.1-.35.45-.05 1.17-.09.73-.04 1.13-.06 0-.88-.05-1.56-.05-.69-.3-1.18t-.74-.74-1.39-.25q-.72 0-1.4.09-.67.09-1.2.19-.62.12-1.15.27l-.4-1.72q.63-.15 1.35-.28.63-.12 1.45-.21.83-.09 1.78-.09 1.27 0 2.06.38.79.37 1.23 1.01.43.64.6 1.45.16.81.16 1.71v6q0 .35.01.74t.05.76q.04.38.09.78Zm16.97-.53-5.03-12.25h2.13l2.35 5.68q.35.82.64 1.65.28.82.51 1.47.27.78.47 1.5h.03q.22-.72.5-1.5.22-.65.52-1.47.3-.83.63-1.65l2.17-5.68h2.1l-5.95 15q-.35.93-.91 1.6-.56.68-1.09 1.13-.62.52-1.3.9l-.97-1.73q.52-.25.97-.62.4-.33.8-.81.4-.49.65-1.17Zm17.42.34v-12.6l2-.23v12.83Zm-.32-16.18q0-.57.39-.96.38-.39.96-.39.6 0 1.01.39t.41.96q0 .58-.41.97-.41.38-1.01.38-.58 0-.96-.38-.39-.39-.39-.97m14.36 16.19v-10.08q.02-.52-.13-2.27l1.85-.25.28 1.6q.75-.5 1.49-.88.73-.37 1.51-.66.77-.29 1.5-.29 1.02 0 1.71.24t1.11.79q.43.55.62 1.45.18.9.18 2.25v8.1h-2v-7.88q0-.75-.02-1.33-.03-.59-.21-1-.19-.42-.58-.64-.39-.23-1.09-.23-.65 0-1.37.29-.73.29-1.43.66-.7.38-1.42.88v9.25Zm31.9-12.29v13.48q0 .92-.2 1.8-.2.87-.76 1.56-.57.69-1.58 1.1t-2.66.41q-1.05-.02-1.83-.12-.77-.1-1.47-.29t-1.28-.44l.53-1.75q.97.43 1.99.65 1.01.23 1.81.23.87 0 1.52-.18.65-.17 1.09-.58.44-.42.65-1.09.21-.68.21-1.68v-1.82q-.52.35-1.08.64-.57.28-1.2.48-.64.2-1.24.2-2.33 0-3.68-1.63-1.35-1.64-1.35-4.89 0-1.88.59-3.14t1.49-2.04q.9-.77 1.97-1.11 1.08-.34 2.05-.34 1.28 0 2.34.22 1.06.21 2.09.33m-5.28 10.85q.55 0 1.13-.2.57-.2 1.11-.47.54-.28 1.06-.65v-7.98q-.3-.07-.7-.17-.35-.05-.8-.11-.45-.07-.95-.07-1.05 0-1.8.38-.75.37-1.23 1.02-.49.65-.72 1.53-.22.87-.22 1.85 0 .87.19 1.75.18.87.58 1.57t.98 1.13q.57.42 1.37.42m-280.244-240.84 2.06 36.112h1.874l-3.234-37.471q-.309.742-.783 1.36Zm.33-33.62 6.014 69.753h2.864l-8.446-70.617Zm.865 110.788-.103 4.285h3.028v-4.285Zm5.335 0h2.946v4.285h-2.946Zm-7.828 4.264.103-4.264h-4.14v4.285h5.232Zm1.03-40.664h-5.068v31.765h4.264Zm1.607 31.765h2.801v-31.765h-2.019Zm15.882 4.635v4.202l-2.39.083v-4.285h-2.945v4.285H774v-4.285Zm-10.69-36.4h2.945v31.765h-2.946Z"/><path fill="#fff" d="M799.688 50.732c-3.028.577-3.667 5.253-3.667 5.253h-.988l1.34-28.099h1.276s.618 4.678 3.646 5.253c2.987.577 9.723-.885 9.867-7.374-.144-6.49-6.88-7.952-9.867-7.375-3.028.577-3.646 5.253-3.646 5.253h-1.07l.637-12.772q-.123-1.03-.165-2.184c-.144-3.295-.37-8.24-6.489-8.486H743.76c-6.056.247-6.283 5.19-6.448 8.487q-.02 1.07-.164 2.39l.618 12.565h-2.04s-.618-4.675-3.646-5.252c-2.987-.599-9.723.865-9.867 7.375.144 6.488 6.88 7.95 9.888 7.374s3.625-5.253 3.625-5.253h2.266l1.36 28.099h-1.998s-.618-4.676-3.647-5.253c-2.987-.598-9.723.865-9.888 7.375.165 6.489 6.901 7.95 9.888 7.374 3.03-.576 3.647-5.253 3.647-5.253h2.183c.495 10.28.927 19.982 1.257 28.099h-1.813s-.618-4.676-3.667-5.253c-2.966-.598-9.702.865-9.847 7.375.145 6.489 6.88 7.95 9.847 7.374 3.028-.576 3.667-5.253 3.667-5.253h1.998c.392 9.476.598 16.027.515 17.51-.37.7-.062 2.596 3.955 18.685.845 3.44 1.73 6.942 1.854 7.622h6.18l-1.957-34.3q-1.215.619-2.616.619a6.12 6.12 0 0 1-6.097-6.14 6.056 6.056 0 0 1 11.247-3.254l-2.122-24.452q-1.36.824-3.048.844a6.12 6.12 0 0 1-6.077-6.138 6.077 6.077 0 0 1 11.082-3.502l-2.842-23.814a6.2 6.2 0 0 1-2.143.433 6.12 6.12 0 0 1-6.097-6.12 6.12 6.12 0 0 1 6.097-6.137 6.118 6.118 0 0 1 4.388 10.36l12.154 101.6h3.46L780.077 34.81a6.118 6.118 0 0 1 4.367-10.362 6.12 6.12 0 0 1 6.098 6.139 6.12 6.12 0 0 1-6.098 6.118q-1.112-.02-2.122-.412l-2.575 23.443a6.18 6.18 0 0 1 4.697-2.266 6.12 6.12 0 0 1 6.098 6.118 6.12 6.12 0 0 1-6.098 6.139q-1.648-.02-2.987-.824l-1.73 23.875a6.056 6.056 0 0 1 10.815 3.832 6.12 6.12 0 0 1-6.098 6.139q-1.4 0-2.575-.618l-1.112 34.278h6.303c.124-.66.99-4.182 1.854-7.622 4.017-16.088 4.326-17.963 3.956-18.684-.083-1.463.123-8.034.515-17.51h.988s.64 4.676 3.667 5.253c2.987.577 9.703-.886 9.847-7.375-.144-6.49-6.86-7.951-9.847-7.375-3.028.577-3.667 5.253-3.667 5.253h-.824l1.257-28.098h1.195s.618 4.676 3.646 5.274c2.987.576 9.723-.886 9.888-7.396-.165-6.49-6.9-7.972-9.888-7.375m-28.593 90.27H774v31.765h-2.946Zm8.22 36.4h-2.884v4.285h2.987Zm2.41 0 .103 4.263-1.195.02h5.274v-4.284Zm4.182-36.4h-5.11l.804 31.765h4.306Zm-9.476 0v31.765h2.76l-.783-31.766Z"/><path fill="#fff" d="M776.575 136.388h1.792l1.174-36.092h.124q-.247-.31-.412-.618Zm-10.876 4.635h2.946v31.765H765.7Zm5.623-4.614h2.843l5.067-69.731-.206-.371Z"/></g><path fill="transparent" stroke="transparent" d="M470 0h560v349H470z"/></g></svg>